<svg enable-background="new 0 0 1062.6 302.1" viewBox="0 0 1062.6 302.1" xmlns="http://www.w3.org/2000/svg" xmlns:xlink="http://www.w3.org/1999/xlink"><linearGradient id="a" gradientTransform="matrix(647.6262 -86.4678 -86.4678 -647.6262 -649474.8125 491753.0312)" gradientUnits="userSpaceOnUse" x1="1084.8684" x2="1085.4005" y1="614.1985" y2="614.1985"><stop offset="0" stop-color="#a1cdef"/><stop offset="1" stop-color="#3976c4"/></linearGradient><linearGradient id="b"><stop offset="0" stop-color="#a1cdef"/><stop offset="0" stop-color="#3976c4"/><stop offset=".7914" stop-color="#3976c4"/><stop offset=".7946" stop-color="#3976c4"/></linearGradient><linearGradient id="c" gradientUnits="userSpaceOnUse" x1="378.67" x2="444.2698" xlink:href="#b" y1="199.2706" y2="85.6484"/><linearGradient id="d" gradientUnits="userSpaceOnUse" x1="491.5142" x2="537.663" xlink:href="#b" y1="190.6579" y2="110.7259"/><linearGradient id="e" gradientUnits="userSpaceOnUse" x1="594.3474" x2="661.2825" xlink:href="#b" y1="199.2528" y2="83.3179"/><linearGradient id="f" gradientUnits="userSpaceOnUse" x1="721.9636" x2="786.2466" xlink:href="#b" y1="199.2368" y2="87.8953"/><linearGradient id="g" gradientUnits="userSpaceOnUse" x1="842.8287" x2="913.567" xlink:href="#b" y1="195.3657" y2="72.8434"/><linearGradient id="h" gradientUnits="userSpaceOnUse" x1="968.251" x2="1041.6414" xlink:href="#b" y1="204.9128" y2="77.7969"/><path d="m229.9 248.2c.1-1.2.3-2.3.4-3.5.8-6.6 1.2-13.2 1.4-19.7.2-6.3.2-12.5 0-18.8 7.8-1.9 15.5-4.1 23.2-6.6 17.7-5.6 34.9-12.6 51.5-20.5-12.8 31.1-40.2 57.3-76.5 69.1zm-4.2-96.1c7.1-2.1 14.1-4.4 21.1-6.9 22.7-8.2 44.6-18.7 65.1-30.9 3.9 16.2 3.7 32.7-.1 48.4-19.3 10.9-39.4 20.5-60.4 28.3-6.6 2.4-13.3 4.7-20.1 6.7-.7-15.3-2.7-30.6-5.6-45.6zm-13.5-52.5c9.5-2.5 18.9-5.6 28-9.6 7.9-3.5 15.5-7.8 22.4-12.9 6.3-4.6 12.1-10 17.1-15.9 11.2 9.9 20.4 22 26.5 36.1-20.1 14.1-41.8 26.2-64.9 35.9-5.9 2.5-11.9 4.8-18 7-3.1-13.7-6.8-27.3-11.1-40.6zm-10.4-28.9c-4.8-12.2-10.1-24.2-15.8-36-.2-.4-.3-.7-.5-1.1 32.3-4.1 63.7 4.4 87.5 22.1-4.4 5.8-9.6 11.1-15.4 15.8-6.2 5-13.1 9.2-20.5 12.9-8.4 4.2-17.3 7.5-26.5 10.3-2.7-8.1-5.7-16.1-8.8-24zm120 35.3c-17.9-58.2-78.9-91.6-139.4-78.3-4.7-9.4-9.6-18.6-15-27.7l-.2.1c3.7 9.5 7.5 19 11.1 28.5-2 .5-4 1.1-6 1.7-18.3 5.7-34.4 15.2-47.5 27.3 11.2-8.2 24.1-14.8 38.4-19.2 5.8-1.8 11.6-3.1 17.4-4.1.3.8.6 1.5.9 2.3 4.6 12.2 9 24.4 13.2 36.7 2.7 7.9 5.2 15.8 7.6 23.8-4.2 1.1-8.3 2.1-12.5 3-16.5 3.6-33.4 5.9-50.4 7.8-17 1.8-34 3.2-51 4.6v.2c17.1-.7 34.2-1.4 51.2-2.6 17.1-1.2 34.2-2.9 51.1-5.8 4.3-.8 8.7-1.6 13-2.6 4.1 13.7 7.7 27.5 10.8 41.5-16.4 5.4-33.2 9.6-50.4 12.7-26.7 4.9-54.1 7.2-81.5 7.9-27.5.7-55-.2-82.5-1.5v.2c27.4 2.8 54.9 5.1 82.5 5.8s55.5-.1 83.1-3.7c17.2-2.2 34.4-5.5 51.2-10 3 15 5.2 30.2 6.5 45.4-12.3 3.4-24.8 6.1-37.5 8.1-22.5 3.5-45.5 4.6-68.5 3.6-23-.9-45.9-3.9-68.6-7.8l-.1.2c22.5 4.9 45.3 8.8 68.4 10.8s46.5 1.9 69.7-.7c12.5-1.4 24.9-3.5 37.2-6.2.4 5.6.6 11.2.7 16.9.2 8.3 0 16.7-.5 25-19.1 5.3-38.3 6-56.3 2.8 17.6 5.5 36.6 7 55.8 4-1.3 15.2-3.7 30.4-7.3 45.4l.2.1c4.8-12.2 8.3-24.9 10.8-37.8.6-2.8 1-5.7 1.5-8.6 4-.8 8-1.8 12-3 63.6-19.8 99.9-85.4 80.9-146.8" fill="url(#a)"/><path d="m469.8 168.1v.2.2c0 4.1-.8 7.9-2.3 11.4s-3.6 6.6-6.2 9.3c-2.7 2.7-5.7 4.7-9.3 6.2-3.5 1.5-7.3 2.3-11.4 2.3h-56.9c-4.1 0-7.9-.8-11.4-2.3s-6.6-3.6-9.3-6.2c-2.7-2.7-4.7-5.7-6.2-9.3-1.5-3.5-2.3-7.3-2.3-11.4v-54.3c0-4.1.8-7.9 2.3-11.4s3.6-6.6 6.2-9.3 5.7-4.7 9.3-6.2c3.5-1.5 7.3-2.3 11.4-2.3h51.5c4.1 0 7.9.8 11.4 2.3s6.6 3.6 9.3 6.2c2.7 2.7 4.7 5.7 6.2 9.3 1.5 3.5 2.3 7.3 2.3 11.4v.2h-10.8c0-2.7-.5-5.2-1.6-7.6-1-2.4-2.4-4.5-4.2-6.2-1.8-1.8-3.8-3.2-6.2-4.2-2.3-1-4.9-1.6-7.6-1.6h-49.3c-2.7 0-5.3.5-7.6 1.6-2.4 1-4.5 2.4-6.2 4.2-1.8 1.8-3.2 3.8-4.2 6.2s-1.6 4.9-1.6 7.6v54c0 2.7.5 5.3 1.6 7.6 1 2.4 2.4 4.5 4.2 6.2 1.8 1.8 3.8 3.2 6.2 4.2s4.9 1.6 7.6 1.6h54.8c2.7 0 5.3-.5 7.6-1.6 2.4-1 4.5-2.4 6.2-4.2 1.8-1.8 3.1-3.8 4.1-6.2s1.5-4.9 1.5-7.6v-5.5c0-2.7-.5-5.2-1.6-7.6-1-2.3-2.4-4.4-4.2-6.2s-3.8-3.2-6.2-4.3c-2.3-1-4.9-1.6-7.6-1.6h-38.8v-9.5h39.9c4.1 0 7.9.8 11.4 2.3s6.6 3.6 9.3 6.2c2.7 2.7 4.7 5.7 6.2 9.2s2.3 7.3 2.3 11.3v5.4z" fill="url(#c)"/><path d="m557.8 187.9v9.7h-46.3c-4.1 0-7.9-.8-11.4-2.3s-6.6-3.6-9.3-6.2c-2.7-2.7-4.7-5.7-6.2-9.3-1.5-3.5-2.3-7.3-2.3-11.4v-83.4h10.7v83.3c0 2.7.5 5.3 1.6 7.6 1 2.4 2.4 4.5 4.2 6.2 1.8 1.8 3.8 3.2 6.2 4.2 2.3 1 4.9 1.6 7.6 1.6z" fill="url(#d)"/><path d="m656.2 85c4.1 0 7.9.8 11.4 2.3s6.6 3.6 9.3 6.2 4.7 5.7 6.2 9.3c1.5 3.5 2.3 7.3 2.3 11.4v54.3c0 4.1-.8 7.9-2.3 11.4s-3.6 6.6-6.2 9.3c-2.7 2.7-5.7 4.7-9.3 6.2-3.5 1.5-7.3 2.3-11.4 2.3h-56.9c-4.1 0-7.8-.8-11.3-2.3s-6.6-3.6-9.2-6.2c-2.7-2.7-4.7-5.7-6.2-9.3-1.5-3.5-2.3-7.3-2.3-11.4v-54.3c0-4.1.8-7.9 2.3-11.4s3.6-6.6 6.2-9.3 5.7-4.7 9.2-6.2 7.3-2.3 11.3-2.3zm18.6 29.3c0-2.7-.5-5.2-1.6-7.6-1-2.4-2.4-4.5-4.2-6.2-1.8-1.8-3.8-3.2-6.2-4.2s-4.9-1.6-7.6-1.6h-54.8c-2.7 0-5.2.5-7.6 1.6-2.3 1-4.4 2.4-6.2 4.2s-3.2 3.8-4.2 6.2-1.6 4.9-1.6 7.6v54c0 2.7.5 5.3 1.6 7.6 1 2.4 2.4 4.5 4.2 6.2 1.8 1.8 3.8 3.2 6.2 4.2 2.3 1 4.9 1.6 7.6 1.6h54.8c2.7 0 5.3-.5 7.6-1.6 2.4-1 4.5-2.4 6.2-4.2 1.8-1.8 3.2-3.8 4.2-6.2s1.6-4.9 1.6-7.6z" fill="url(#e)"/><path d="m793.3 135.2c5.8 2 10.6 5.4 14.2 10.4 3.6 4.9 5.5 10.6 5.5 17.1v5.8c0 4.1-.8 7.9-2.3 11.4s-3.6 6.6-6.2 9.3c-2.7 2.7-5.7 4.7-9.2 6.2s-7.3 2.3-11.3 2.3h-57c-4.1 0-7.9-.8-11.4-2.3s-6.6-3.6-9.3-6.2c-2.7-2.7-4.7-5.7-6.2-9.3-1.5-3.5-2.3-7.3-2.3-11.4v-54.3c0-4.1.8-7.9 2.3-11.4s3.6-6.6 6.2-9.3 5.7-4.7 9.3-6.2c3.5-1.5 7.3-2.3 11.4-2.3h46.3c4.1 0 7.8.8 11.3 2.3s6.6 3.6 9.2 6.2 4.7 5.7 6.2 9.3c1.5 3.5 2.3 7.3 2.3 11.4 0 4.2-.8 8-2.4 11.6-1.5 3.5-3.8 6.7-6.6 9.4zm-21.2-1.7c2.7 0 5.3-.5 7.6-1.5 2.4-1 4.5-2.4 6.2-4.1 1.8-1.8 3.2-3.8 4.2-6.2 1-2.3 1.6-4.9 1.6-7.6s-.5-5.2-1.6-7.6c-1-2.3-2.4-4.4-4.2-6.2s-3.8-3.2-6.2-4.2-4.9-1.6-7.6-1.6h-44c-2.7 0-5.2.5-7.6 1.6-2.3 1-4.4 2.4-6.2 4.2s-3.3 3.8-4.3 6.2c-1 2.3-1.6 4.9-1.6 7.6v19.3h63.7zm-63.6 34.9c0 2.7.5 5.2 1.6 7.6 1 2.3 2.5 4.4 4.3 6.2s3.9 3.2 6.2 4.2 4.9 1.6 7.6 1.6h54.8c2.7 0 5.2-.5 7.6-1.6 2.3-1 4.4-2.4 6.2-4.2s3.2-3.8 4.2-6.2c1-2.3 1.6-4.9 1.6-7.6v-5.8c0-2.7-.5-5.2-1.6-7.6-1-2.3-2.4-4.4-4.2-6.2s-3.8-3.2-6.2-4.2c-2.3-1-4.9-1.6-7.6-1.6h-74.4v25.4z" fill="url(#f)"/><path d="m924.2 85.1h10.6v83.3c0 4.1-.8 7.9-2.3 11.4s-3.6 6.6-6.2 9.3c-2.7 2.7-5.7 4.7-9.3 6.2-3.5 1.5-7.3 2.3-11.4 2.3h-51.2c-4.1 0-7.8-.8-11.3-2.3s-6.6-3.6-9.2-6.2c-2.7-2.7-4.7-5.7-6.2-9.3-1.5-3.5-2.3-7.3-2.3-11.4v-.2-83.1h10.6v83.1.2-.2c0 2.7.5 5.3 1.6 7.6 1 2.4 2.4 4.5 4.2 6.2 1.8 1.8 3.8 3.2 6.2 4.2s4.9 1.6 7.6 1.6h48.8c2.7 0 5.2-.5 7.6-1.6 2.3-1 4.4-2.4 6.2-4.2s3.2-3.8 4.3-6.2c1-2.4 1.6-4.9 1.6-7.6v-83.1z" fill="url(#g)"/><path d="m1054.3 85.1v9.7h-77.8c-2.6.2-5 .8-7.3 1.9-2.2 1-4.2 2.4-5.9 4.1s-3 3.7-3.9 6-1.4 4.7-1.4 7.3.5 5 1.4 7.3 2.2 4.3 3.9 6.1 3.6 3.2 5.9 4.3c2.2 1.1 4.7 1.7 7.3 1.8h56.9c4.1 0 7.9.8 11.4 2.3s6.6 3.6 9.3 6.2c2.7 2.7 4.7 5.7 6.2 9.2s2.3 7.3 2.3 11.3v5.9c0 4.1-.8 7.8-2.3 11.3s-3.6 6.6-6.2 9.2c-2.7 2.7-5.7 4.7-9.3 6.2-3.5 1.5-7.3 2.3-11.4 2.3h-77.8v-9.5h77.8c2.6-.1 5-.7 7.3-1.8 2.2-1.1 4.2-2.5 5.8-4.3 1.7-1.8 3-3.8 4-6.1s1.5-4.7 1.5-7.3v-5.9c0-2.6-.5-5-1.5-7.3s-2.3-4.3-4-6-3.6-3.1-5.8-4.1-4.7-1.7-7.3-1.9h-56.9c-4.1 0-7.9-.8-11.4-2.3s-6.6-3.6-9.3-6.2c-2.7-2.7-4.7-5.7-6.2-9.3-1.5-3.5-2.3-7.3-2.3-11.4s.8-7.8 2.3-11.3 3.6-6.6 6.2-9.2 5.7-4.7 9.3-6.2c3.5-1.5 7.3-2.3 11.4-2.3z" fill="url(#h)"/></svg>