<?xml version="1.0" encoding="utf-8"?>
<!-- Generator: Adobe Illustrator 24.0.0, SVG Export Plug-In . SVG Version: 6.00 Build 0)  -->
<svg version="1.1" id="Layer_1" xmlns="http://www.w3.org/2000/svg" xmlns:xlink="http://www.w3.org/1999/xlink" x="0px" y="0px"
	 viewBox="0 0 968.2 302.2" style="enable-background:new 0 0 968.2 302.2;" xml:space="preserve">
<style type="text/css">
	.st0{fill:url(#SVGID_1_);}
	.st1{display:none;fill:url(#SVGID_2_);}
	.st2{display:none;fill:none;}
	.st3{enable-background:new    ;}
	.st4{fill:#3876C3;}
</style>
<g id="Layer_1_1_">
	
		<linearGradient id="SVGID_1_" gradientUnits="userSpaceOnUse" x1="1058.7136" y1="-86.1129" x2="1059.2457" y2="-86.1129" gradientTransform="matrix(647.6262 -86.4678 86.4678 647.6262 -678198.75 147489.5312)">
		<stop  offset="0" style="stop-color:#A1CDEF"/>
		<stop  offset="1" style="stop-color:#3976C4"/>
	</linearGradient>
	<path class="st0" d="M229.8,248.2c0.1-1.2,0.3-2.3,0.4-3.5c0.8-6.6,1.2-13.2,1.4-19.7c0.2-6.3,0.2-12.5,0-18.8
		c7.8-1.9,15.5-4.1,23.2-6.6c17.7-5.6,34.9-12.6,51.5-20.5C293.5,210.2,266.1,236.4,229.8,248.2L229.8,248.2z M225.6,152.1
		c7.1-2.1,14.1-4.4,21.1-6.9c22.7-8.2,44.6-18.7,65.1-30.9c3.9,16.2,3.7,32.7-0.1,48.4c-19.3,10.9-39.4,20.5-60.4,28.3
		c-6.6,2.4-13.3,4.7-20.1,6.7C230.5,182.4,228.5,167.1,225.6,152.1L225.6,152.1z M212.1,99.6c9.5-2.5,18.9-5.6,28-9.6
		c7.9-3.5,15.5-7.8,22.4-12.9c6.3-4.6,12.1-10,17.1-15.9c11.2,9.9,20.4,22,26.5,36.1c-20.1,14.1-41.8,26.2-64.9,35.9
		c-5.9,2.5-11.9,4.8-18,7C220.1,126.5,216.4,112.9,212.1,99.6L212.1,99.6z M201.7,70.7c-4.8-12.2-10.1-24.2-15.8-36
		c-0.2-0.4-0.3-0.7-0.5-1.1c32.3-4.1,63.7,4.4,87.5,22.1c-4.4,5.8-9.6,11.1-15.4,15.8c-6.2,5-13.1,9.2-20.5,12.9
		c-8.4,4.2-17.3,7.5-26.5,10.3C207.8,86.6,204.8,78.6,201.7,70.7z M321.7,106c-17.9-58.2-78.9-91.6-139.4-78.3
		c-4.7-9.4-9.6-18.6-15-27.7l-0.2,0.1c3.7,9.5,7.5,19,11.1,28.5c-2,0.5-4,1.1-6,1.7c-18.3,5.7-34.4,15.2-47.5,27.3
		c11.2-8.2,24.1-14.8,38.4-19.2c5.8-1.8,11.6-3.1,17.4-4.1c0.3,0.8,0.6,1.5,0.9,2.3c4.6,12.2,9,24.4,13.2,36.7
		c2.7,7.9,5.2,15.8,7.6,23.8c-4.2,1.1-8.3,2.1-12.5,3c-16.5,3.6-33.4,5.9-50.4,7.8c-17,1.8-34,3.2-51,4.6v0.2
		c17.1-0.7,34.2-1.4,51.2-2.6c17.1-1.2,34.2-2.9,51.1-5.8c4.3-0.8,8.7-1.6,13-2.6c4.1,13.7,7.7,27.5,10.8,41.5
		c-16.4,5.4-33.2,9.6-50.4,12.7c-26.7,4.9-54.1,7.2-81.5,7.9c-27.5,0.7-55-0.2-82.5-1.5v0.2c27.4,2.8,54.9,5.1,82.5,5.8
		s55.5-0.1,83.1-3.7c17.2-2.2,34.4-5.5,51.2-10c3,15,5.2,30.2,6.5,45.4c-12.3,3.4-24.8,6.1-37.5,8.1c-22.5,3.5-45.5,4.6-68.5,3.6
		c-23-0.9-45.9-3.9-68.6-7.8l-0.1,0.2c22.5,4.9,45.3,8.8,68.4,10.8s46.5,1.9,69.7-0.7c12.5-1.4,24.9-3.5,37.2-6.2
		c0.4,5.6,0.6,11.2,0.7,16.9c0.2,8.3,0,16.7-0.5,25c-19.1,5.3-38.3,6-56.3,2.8c17.6,5.5,36.6,7,55.8,4c-1.3,15.2-3.7,30.4-7.3,45.4
		l0.2,0.1c4.8-12.2,8.3-24.9,10.8-37.8c0.6-2.8,1-5.7,1.5-8.6c4-0.8,8-1.8,12-3C304.4,233,340.7,167.4,321.7,106"/>
	
		<linearGradient id="SVGID_2_" gradientUnits="userSpaceOnUse" x1="378.5758" y1="-384.329" x2="444.1742" y2="-270.7093" gradientTransform="matrix(1 0 0 -1 0 -185)">
		<stop  offset="0" style="stop-color:#A1CDEF"/>
		<stop  offset="0" style="stop-color:#3976C4"/>
		<stop  offset="0.7914" style="stop-color:#3976C4"/>
		<stop  offset="0.7946" style="stop-color:#3976C4"/>
	</linearGradient>
	<path class="st1" d="M469.7,168.1v0.2v0.2c0,4.1-0.8,7.9-2.3,11.4s-3.6,6.6-6.2,9.3c-2.7,2.7-5.7,4.7-9.3,6.2
		c-3.5,1.5-7.3,2.3-11.4,2.3h-56.9c-4.1,0-7.9-0.8-11.4-2.3s-6.6-3.6-9.3-6.2c-2.7-2.7-4.7-5.7-6.2-9.3c-1.5-3.5-2.3-7.3-2.3-11.4
		v-54.3c0-4.1,0.8-7.9,2.3-11.4s3.6-6.6,6.2-9.3c2.6-2.7,5.7-4.7,9.3-6.2c3.5-1.5,7.3-2.3,11.4-2.3h51.5c4.1,0,7.9,0.8,11.4,2.3
		s6.6,3.6,9.3,6.2c2.7,2.7,4.7,5.7,6.2,9.3c1.5,3.5,2.3,7.3,2.3,11.4v0.2h-10.8c0-2.7-0.5-5.2-1.6-7.6c-1-2.4-2.4-4.5-4.2-6.2
		c-1.8-1.8-3.8-3.2-6.2-4.2c-2.3-1-4.9-1.6-7.6-1.6h-49.3c-2.7,0-5.3,0.5-7.6,1.6c-2.4,1-4.5,2.4-6.2,4.2c-1.8,1.8-3.2,3.8-4.2,6.2
		s-1.6,4.9-1.6,7.6v54c0,2.7,0.5,5.3,1.6,7.6c1,2.4,2.4,4.5,4.2,6.2c1.8,1.8,3.8,3.2,6.2,4.2s4.9,1.6,7.6,1.6h54.8
		c2.7,0,5.3-0.5,7.6-1.6c2.4-1,4.5-2.4,6.2-4.2c1.8-1.8,3.1-3.8,4.1-6.2s1.5-4.9,1.5-7.6v-5.5c0-2.7-0.5-5.2-1.6-7.6
		c-1-2.3-2.4-4.4-4.2-6.2s-3.8-3.2-6.2-4.3c-2.3-1-4.9-1.6-7.6-1.6h-38.8v-9.5h39.9c4.1,0,7.9,0.8,11.4,2.3s6.6,3.6,9.3,6.2
		c2.7,2.7,4.7,5.7,6.2,9.2s2.3,7.3,2.3,11.3v5.4L469.7,168.1z"/>
	<path class="st2" d="M1054.2,85.1v9.7h-77.8c-2.6,0.2-5,0.8-7.3,1.9c-2.2,1-4.2,2.4-5.9,4.1s-3,3.7-3.9,6s-1.4,4.7-1.4,7.3
		s0.5,5,1.4,7.3s2.2,4.3,3.9,6.1c1.7,1.8,3.6,3.2,5.9,4.3c2.2,1.1,4.7,1.7,7.3,1.8h56.9c4.1,0,7.9,0.8,11.4,2.3s6.6,3.6,9.3,6.2
		c2.7,2.7,4.7,5.7,6.2,9.2s2.3,7.3,2.3,11.3v5.9c0,4.1-0.8,7.8-2.3,11.3s-3.6,6.6-6.2,9.2c-2.7,2.7-5.7,4.7-9.3,6.2
		c-3.5,1.5-7.3,2.3-11.4,2.3h-77.8V188h77.8c2.6-0.1,5-0.7,7.3-1.8c2.2-1.1,4.2-2.5,5.8-4.3c1.7-1.8,3-3.8,4-6.1s1.5-4.7,1.5-7.3
		v-5.9c0-2.6-0.5-5-1.5-7.3s-2.3-4.3-4-6s-3.6-3.1-5.8-4.1s-4.7-1.7-7.3-1.9h-56.9c-4.1,0-7.9-0.8-11.4-2.3s-6.6-3.6-9.3-6.2
		c-2.7-2.7-4.7-5.7-6.2-9.3c-1.5-3.5-2.3-7.3-2.3-11.4s0.8-7.8,2.3-11.3s3.6-6.6,6.2-9.2c2.6-2.6,5.7-4.7,9.3-6.2
		c3.5-1.5,7.3-2.3,11.4-2.3L1054.2,85.1z"/>
</g>
<g id="Layer_2_1_">
	<g>
		<g class="st3">
			<path class="st4" d="M442.8,82.2c4.2,0,8,0.8,11.6,2.3c3.6,1.5,6.7,3.7,9.4,6.4c2.7,2.7,4.9,5.9,6.4,9.5
				c1.5,3.6,2.3,7.5,2.3,11.7v85.6h-10.9v-55.8h-96.3v55.8h-10.9v-85.6c0-4.2,0.8-8.1,2.3-11.7c1.5-3.6,3.7-6.8,6.4-9.5
				c2.7-2.7,5.9-4.9,9.5-6.4c3.6-1.5,7.5-2.3,11.7-2.3H442.8z M461.7,131.9v-19.7c0-2.8-0.5-5.4-1.6-7.8c-1.1-2.5-2.5-4.6-4.3-6.4
				c-1.8-1.8-3.9-3.3-6.3-4.3c-2.4-1.1-5-1.6-7.8-1.6h-56.2c-2.8,0-5.4,0.5-7.8,1.6c-2.5,1.1-4.6,2.5-6.4,4.3
				c-1.8,1.8-3.3,3.9-4.3,6.4c-1.1,2.5-1.6,5.1-1.6,7.8v19.7H461.7z"/>
			<path class="st4" d="M603.4,82.3v9.8h-53.6v105.6h-11V92.1h-53.4v-9.8H603.4z"/>
			<path class="st4" d="M693.6,187.8v9.9h-47.5c-4.2,0-8.1-0.8-11.7-2.3c-3.6-1.5-6.8-3.7-9.5-6.4c-2.7-2.7-4.9-5.9-6.4-9.5
				c-1.5-3.6-2.3-7.5-2.3-11.7V82.2h11v85.4c0,2.8,0.5,5.4,1.6,7.8c1.1,2.5,2.5,4.6,4.3,6.4c1.8,1.8,3.9,3.3,6.3,4.3
				c2.4,1.1,5,1.6,7.8,1.6H693.6z"/>
			<path class="st4" d="M794.8,82.2c4.2,0,8,0.8,11.6,2.3c3.6,1.5,6.7,3.7,9.4,6.4c2.7,2.7,4.9,5.9,6.4,9.5
				c1.5,3.6,2.3,7.5,2.3,11.7v85.6h-10.9v-55.8h-96.3v55.8h-10.9v-85.6c0-4.2,0.8-8.1,2.3-11.7c1.5-3.6,3.7-6.8,6.4-9.5
				c2.7-2.7,5.9-4.9,9.5-6.4c3.6-1.5,7.5-2.3,11.7-2.3H794.8z M813.6,131.9v-19.7c0-2.8-0.5-5.4-1.6-7.8c-1.1-2.5-2.5-4.6-4.3-6.4
				c-1.8-1.8-3.9-3.3-6.3-4.3c-2.4-1.1-5-1.6-7.8-1.6h-56.2c-2.8,0-5.4,0.5-7.8,1.6c-2.5,1.1-4.6,2.5-6.4,4.3
				c-1.8,1.8-3.3,3.9-4.3,6.4c-1.1,2.5-1.6,5.1-1.6,7.8v19.7H813.6z"/>
			<path class="st4" d="M947.1,82.3v9.9h-79.8c-2.7,0.2-5.1,0.9-7.4,1.9c-2.3,1.1-4.3,2.5-6,4.2c-1.7,1.8-3,3.8-4,6.2
				c-1,2.3-1.4,4.9-1.4,7.5c0,2.7,0.5,5.2,1.4,7.5c1,2.3,2.3,4.4,4,6.2c1.7,1.8,3.7,3.3,6,4.4c2.3,1.1,4.8,1.7,7.4,1.8h58.4
				c4.2,0,8.1,0.8,11.7,2.3c3.6,1.5,6.8,3.7,9.5,6.4c2.7,2.7,4.9,5.9,6.4,9.4c1.5,3.6,2.3,7.4,2.3,11.6v6.1c0,4.2-0.8,8-2.3,11.6
				c-1.5,3.6-3.7,6.7-6.4,9.4c-2.7,2.7-5.9,4.9-9.5,6.4c-3.6,1.5-7.5,2.3-11.7,2.3h-79.8v-9.8h79.8c2.7-0.1,5.1-0.7,7.4-1.8
				c2.3-1.1,4.3-2.6,6-4.4c1.7-1.8,3.1-3.9,4.1-6.2c1-2.3,1.5-4.9,1.5-7.5v-6.1c0-2.7-0.5-5.2-1.5-7.5c-1-2.3-2.4-4.4-4.1-6.2
				c-1.7-1.8-3.7-3.2-6-4.2c-2.3-1.1-4.8-1.7-7.4-1.9h-58.4c-4.2,0-8.1-0.8-11.7-2.3c-3.6-1.5-6.8-3.7-9.5-6.4
				c-2.7-2.7-4.9-5.9-6.4-9.5c-1.5-3.6-2.3-7.5-2.3-11.7c0-4.2,0.8-8,2.3-11.6c1.5-3.6,3.7-6.7,6.4-9.4c2.7-2.7,5.9-4.9,9.5-6.4
				c3.6-1.5,7.5-2.3,11.7-2.3H947.1z"/>
		</g>
	</g>
</g>
</svg>
