<svg enable-background="new 0 0 924.4 854.3" viewBox="0 0 924.4 854.3" xmlns="http://www.w3.org/2000/svg"><path d="m650.2 701.8c.4-3.3.8-6.6 1.2-9.8 2.1-18.5 3.4-37.2 4.1-55.9.6-17.7.6-35.4.1-53.1 22.1-5.5 44-11.7 65.6-18.6 50-16 98.6-35.6 145.6-57.9-36.6 88-113.9 161.9-216.6 195.3zm-11.8-271.6c20.1-5.9 40-12.3 59.7-19.4 64.3-23.1 126.1-52.7 184.1-87.5 11.1 45.9 10.5 92.5-.2 136.8-54.5 30.8-111.3 58-170.7 79.9-18.7 6.9-37.6 13.3-56.7 19-2.5-43.2-8.1-86.3-16.2-128.8zm-38.3-148.5c27-7.1 53.5-15.9 79.1-27.3 22.3-10 43.7-22 63.3-36.4 17.9-13.1 34.3-28.3 48.3-45 31.8 27.9 57.6 62.3 75 102-57 39.9-118.3 74.1-183.5 101.6-16.7 7.1-33.7 13.6-50.9 19.8-8.5-38.7-19-77-31.3-114.7zm-29.4-81.8c-13.7-34.5-28.7-68.5-44.8-101.8-.5-1-1-2-1.5-3 91.3-11.5 180.1 12.4 247.5 62.6-12.5 16.5-27.1 31.4-43.6 44.6-17.6 14-37.1 26.1-57.9 36.4-23.8 11.8-48.9 21.3-74.8 29.2-7.8-22.9-16.1-45.5-24.9-68zm339.5 99.8c-50.6-164.4-223.1-259.1-394.2-221.5-13.3-26.5-27.3-52.7-42.4-78.2l-.6.3c10.4 27 21.1 53.8 31.5 80.7-5.7 1.4-11.3 3-17 4.8-52 16-97.4 42.9-134.6 77.1 31.8-23.2 68.2-41.8 108.5-54.2 16.4-5 32.8-8.9 49.2-11.6.8 2.2 1.7 4.3 2.5 6.5 13 34.5 25.5 69 37.3 103.8 7.5 22.3 14.7 44.8 21.5 67.3-11.7 3.1-23.6 5.9-35.5 8.5-46.7 10.1-94.5 16.7-142.4 21.9-48 5.2-96.1 9-144.3 12.9v.7c48.3-2 96.6-3.9 144.9-7.3s96.6-8.1 144.5-16.5c12.3-2.2 24.5-4.6 36.7-7.3 11.5 38.8 21.8 77.9 30.6 117.3-46.3 15.1-94 27.1-142.4 35.9-75.5 13.9-152.9 20.4-230.5 22.3-77.6 2-155.5-.5-233.4-4.4l-.1.8c77.5 7.9 155.2 14.4 233.4 16.5s156.9-.4 235-10.6c48.7-6.3 97.2-15.6 144.7-28.2 8.4 42.5 14.7 85.3 18.5 128.4-34.8 9.6-70.2 17.2-106.1 22.8-63.7 9.9-128.8 12.9-193.7 10.2-65-2.7-129.7-11-193.9-22l-.2.6c63.6 13.8 128 24.9 193.4 30.5 65.3 5.6 131.5 5.4 197.1-1.9 35.3-3.9 70.4-9.8 105.1-17.6 1 15.9 1.7 31.8 2 47.7.5 23.6 0 47.2-1.5 70.8-54 14.9-108.4 16.9-159.3 7.8 49.7 15.5 103.6 19.9 157.9 11.2-3.6 43-10.4 85.9-20.7 128.4l.6.2c13.6-34.4 23.6-70.4 30.7-107 1.6-8 2.9-16.1 4.2-24.2 11.3-2.3 22.6-5.1 33.8-8.6 180.1-55.5 282.7-241.2 229.2-414.8" fill="#fff"/></svg>